# xmcd CD database file
#
# Track frame offsets:
#	150
#	18517
#	41205
#	58740
#
# Disc length: 1024 seconds
#
# Revision: 3
# Processed by: cddbd v1.5PL3 Copyright (c) Steve Scherf et al.
# Submitted via: CDex 1.50beta9
#
DISCID=3203fe04
DTITLE=上原あずみ - Lazy
DYEAR=2002
DGENRE=JPop
TTITLE0=Lazy
TTITLE1=Lazy-night clubbers mix-
TTITLE2=Mask
TTITLE3=Lazy-Instrumental-
EXTD=YEAR: 2002
EXTT0=
EXTT1=
EXTT2=
EXTT3=
PLAYORDER=
